<?xml version="1.0" encoding="utf-8"?>
<!-- Generator: Adobe Illustrator 17.0.0, SVG Export Plug-In . SVG Version: 6.00 Build 0)  -->
<!DOCTYPE svg PUBLIC "-//W3C//DTD SVG 1.1//EN" "http://www.w3.org/Graphics/SVG/1.1/DTD/svg11.dtd">
<svg version="1.1" id="Layer_2" xmlns="http://www.w3.org/2000/svg" xmlns:xlink="http://www.w3.org/1999/xlink" x="0px" y="0px"
	 width="300px" height="250px" viewBox="0 0 300 250" enable-background="new 0 0 300 250" xml:space="preserve">
<g>
	<path fill="#FFFFFF" d="M52.12,141.955c1.24,0.761,3.021,1.141,4.521,1.141c1.9,0,2.88-0.46,2.88-1.32
		c0-1.96-8.222-0.02-8.222-5.121c0-2.801,2.46-4.241,5.581-4.241c2,0,4.381,0.5,5.841,1.36l-1.12,2.461
		c-1.2-0.62-3.161-1.021-4.601-1.021c-1.64,0-2.28,0.46-2.28,1.16c0,2.36,8.222,0.12,8.222,5.302c0,2.721-2.601,4.221-6.281,4.221
		c-2.121,0-4.321-0.48-5.841-1.48L52.12,141.955z"/>
	<path fill="#FFFFFF" d="M64.12,145.696l6.001-13.243h2.981l6.501,13.243h-3.741l-1.28-2.78H68.88l-1.14,2.78H64.12z
		 M71.601,136.435h-0.04l-1.52,3.681h3.241L71.601,136.435z"/>
	<path fill="#FFFFFF" d="M81.439,132.514h3.341v10.342h6.582v2.841h-9.922V132.514z"/>
	<path fill="#FFFFFF" d="M93.16,132.514h10.242v2.841H96.5v2.28h6.281v2.841H96.5v2.38h7.021v2.841H93.16V132.514z"/>
	<path fill="#FFFFFF" d="M111.199,132.514h10.242v2.841h-6.901v2.28h6.281v2.841h-6.281v2.38h7.021v2.841h-10.362V132.514z"/>
	<path fill="#FFFFFF" d="M124.479,132.514h2.901l7.722,8.021h0.04v-8.021h3.34v13.183h-2.76l-7.862-8.222h-0.04v8.222h-3.341
		V132.514z"/>
	<path fill="#FFFFFF" d="M141.999,132.514h5.541c1.36,0,2.301,0.1,3.162,0.3c2.86,0.681,5.141,2.601,5.141,6.081
		c0,3.562-2.4,5.401-4.621,6.182c-1.541,0.54-3.281,0.62-4.821,0.62h-4.401V132.514z M146.6,142.855c1.2,0,2.14-0.08,2.92-0.3
		c1.621-0.46,2.901-1.7,2.901-3.661c0-1.94-1.22-2.94-2.581-3.32c-0.76-0.22-1.54-0.22-2.82-0.22h-1.681v7.501H146.6z"/>
	<path fill="#FFFFFF" d="M159.059,141.955c1.24,0.761,3.021,1.141,4.521,1.141c1.9,0,2.881-0.46,2.881-1.32
		c0-1.96-8.223-0.02-8.223-5.121c0-2.801,2.461-4.241,5.582-4.241c2,0,4.381,0.5,5.841,1.36l-1.12,2.461
		c-1.2-0.62-3.161-1.021-4.602-1.021c-1.64,0-2.28,0.46-2.28,1.16c0,2.36,8.222,0.12,8.222,5.302c0,2.721-2.601,4.221-6.281,4.221
		c-2.12,0-4.32-0.48-5.841-1.48L159.059,141.955z"/>
	<path fill="#FFFFFF" d="M175.219,145.696l6.001-13.243h2.98l6.502,13.243h-3.741l-1.28-2.78h-5.701l-1.14,2.78H175.219z
		 M182.7,136.435h-0.04l-1.521,3.681h3.241L182.7,136.435z"/>
	<path fill="#FFFFFF" d="M192.539,132.514h5.161c1.12,0,1.9,0.1,2.601,0.3c2.06,0.58,3.36,1.961,3.36,4.141
		c0,2.221-1.341,3.781-3.781,4.361c-0.66,0.16-1.42,0.22-2.46,0.22h-1.54v4.161h-3.341V132.514z M197.3,138.774
		c0.84,0,1.28-0.08,1.62-0.18c0.94-0.28,1.32-0.86,1.32-1.601s-0.38-1.26-1.26-1.521c-0.341-0.1-0.7-0.119-1.36-0.119h-1.74v3.42
		H197.3z"/>
	<path fill="#FFFFFF" d="M213.9,140.415c1.1,0.62,1.48,2.82,3.101,2.82c0.36,0,0.7-0.08,1.021-0.199l0.6,2.521
		c-0.68,0.26-1.5,0.34-2.12,0.34c-4.261,0-4.682-4.881-6.102-4.881h-0.72v4.681h-3.341v-13.183h5.44c3.602,0,5.582,1.38,5.582,4.161
		c0,1.96-1.241,3.3-3.461,3.7V140.415z M211.439,138.335c1.78,0,2.501-0.561,2.501-1.541c0-1.06-0.721-1.439-2.261-1.439h-2v2.98
		H211.439z"/>
	<path fill="#FFFFFF" d="M220.619,132.514h3.341v13.183h-3.341V132.514z"/>
	<path fill="#FFFFFF" d="M227.479,132.514h3.341v10.342h6.581v2.841h-9.922V132.514z"/>
	<path fill="#FFFFFF" d="M248.158,132.514h3.301l-4.741,7.342h3.441v-3.361h3.021v3.361h3.44v2.58h-3.44v3.461h-3.021v-3.461h-6.042
		l-1.24-1.74L248.158,132.514z"/>
</g>
<g>
	<path fill="#FFFFFF" d="M59.241,90.161c1.174,0.886,2.812,1.417,4.805,1.417c2.479,0,4.539-0.907,4.539-2.922
		c0-3.122-5.956-1.749-8.48-3.831c-0.708-0.575-1.151-1.372-1.151-2.612c0-2.635,2.281-4.096,5.602-4.096
		c2.215,0,4.251,0.664,5.336,1.395l-0.687,1.263c-0.951-0.576-2.656-1.196-4.538-1.196c-2.856,0-3.985,1.218-3.985,2.546
		c0,4.273,9.631,0.775,9.631,6.51c0,2.989-2.923,4.406-6.266,4.406c-2.479,0-4.428-0.687-5.624-1.616L59.241,90.161z"/>
	<path fill="#FFFFFF" d="M79.411,78.161h1.174l7.461,14.657h-1.837l-2.325-4.649h-7.639l-2.258,4.649h-1.815L79.411,78.161z
		 M83.153,86.729l-3.144-6.243h-0.045l-3.033,6.243H83.153z"/>
	<path fill="#FFFFFF" d="M88.71,78.227l6.243,12.332h0.045l5.934-12.332h1.815l-7.24,14.657H94.4l-7.505-14.657H88.71z"/>
	<path fill="#FFFFFF" d="M105.162,78.227h10.052v1.462h-8.414v4.959h7.595v1.439h-7.595v5.27h8.547v1.461h-10.185V78.227z"/>
	<path fill="#FFFFFF" d="M124.617,88.426c0.504-10.475,12.095-8.243,15.37-10.618c0.54-0.396,0.864-0.9,0.864-1.62
		c0-1.404-1.656-2.231-4.968-2.231c-3.636,0-6.875,0.972-9.574,2.375l-2.196-4.355c3.275-1.836,7.199-3.06,11.807-3.06
		c5.579,0,10.583,2.052,10.583,7.343c0,10.259-15.982,5.075-15.982,11.662v0.252h16.306v4.644h-22.425L124.617,88.426z"/>
	<path fill="#FFFFFF" d="M149.493,81.083c0-7.271,5.832-12.167,12.669-12.167c6.84,0,12.672,4.895,12.672,12.167
		c0,7.451-5.939,12.095-12.672,12.095C155.432,93.178,149.493,88.535,149.493,81.083z M169.182,81.083
		c0-4.14-3.023-7.127-7.02-7.127c-3.994,0-7.018,2.987-7.018,7.127c0,4.104,3.023,7.055,7.018,7.055
		C166.195,88.138,169.182,85.187,169.182,81.083z"/>
	<path fill="#FFFFFF" d="M177.031,72.606c0-3.744,3.025-6.263,6.516-6.263c3.492,0,6.516,2.52,6.516,6.263
		c0,3.815-3.096,6.227-6.516,6.227C180.092,78.833,177.031,76.421,177.031,72.606z M198.594,66.775h4.139l-19.762,23.829h-4.139
		L198.594,66.775z M186.607,72.606c0-1.836-1.332-3.132-3.061-3.132c-1.764,0-3.096,1.296-3.096,3.132
		c0,1.763,1.332,3.059,3.096,3.059S186.607,74.37,186.607,72.606z M191.863,84.557c0-3.744,3.023-6.264,6.514-6.264
		c3.492,0,6.516,2.52,6.516,6.264c0,3.815-3.096,6.227-6.516,6.227C194.922,90.784,191.863,88.373,191.863,84.557z M201.438,84.557
		c0-1.836-1.332-3.132-3.061-3.132c-1.764,0-3.096,1.296-3.096,3.132c0,1.764,1.332,3.06,3.096,3.06S201.438,86.321,201.438,84.557z
		"/>
	<path fill="#FFFFFF" d="M213.273,85.6c0-4.428,3.254-7.483,8.08-7.483c4.828,0,8.082,3.056,8.082,7.483
		c0,4.561-3.32,7.439-8.082,7.439C216.572,93.04,213.273,90.161,213.273,85.6z M227.709,85.6c0-3.477-2.391-6.022-6.355-6.022
		c-3.984,0-6.354,2.546-6.354,6.022c0,3.476,2.369,5.978,6.354,5.978C225.318,91.578,227.709,89.076,227.709,85.6z"/>
	<path fill="#FFFFFF" d="M233.111,78.227h1.305l11.559,11.734h0.043V78.227h1.639v14.591h-1.129l-11.734-11.911h-0.045v11.911
		h-1.637V78.227z"/>
</g>
<polygon id="XMLID_102_" fill="#FCFC63" points="108.798,212.64 109.939,213.129 110.358,212.64 "/>
<g>
	<g>
		<g id="XMLID_95_">
			<path id="XMLID_99_" fill="#06183D" d="M175.329,111.762c0.823,0,1.254-0.078,1.587-0.175c0.92-0.274,1.293-0.842,1.293-1.567
				s-0.373-1.234-1.234-1.489c-0.333-0.098-0.686-0.118-1.332-0.118h-1.704v3.348H175.329z M170.668,105.633h5.053
				c1.097,0,1.861,0.098,2.545,0.294c2.017,0.568,3.291,1.919,3.291,4.054c0,2.174-1.312,3.701-3.702,4.269
				c-0.646,0.157-1.39,0.215-2.408,0.215h-1.508v4.073h-3.27V105.633z"/>
			<path id="XMLID_96_" fill="#06183D" d="M192.702,111.332c1.742,0,2.447-0.548,2.447-1.507c0-1.038-0.705-1.41-2.212-1.41h-1.959
				v2.918H192.702z M195.111,113.369c1.077,0.607,1.449,2.761,3.036,2.761c0.352,0,0.685-0.078,0.998-0.196l0.588,2.468
				c-0.666,0.255-1.469,0.333-2.075,0.333c-4.172,0-4.582-4.778-5.973-4.778h-0.705v4.582h-3.27v-12.905h5.326
				c3.526,0,5.464,1.351,5.464,4.073c0,1.919-1.214,3.231-3.388,3.623V113.369z"/>
		</g>
		<polygon id="XMLID_94_" fill="#06183D" points="205.218,105.633 205.218,118.538 215.362,118.538 215.362,115.758 
			208.489,115.758 208.489,113.427 214.638,113.427 214.638,110.646 208.489,110.646 208.489,108.414 215.245,108.414 
			215.245,105.633 		"/>
		<polygon id="XMLID_93_" fill="#06183D" points="234.694,105.633 229.72,111.547 229.681,111.547 224.706,105.633 221.749,105.633 
			221.749,118.538 225.019,118.538 225.019,110.763 225.059,110.763 229.426,115.973 229.935,115.973 234.301,110.763 
			234.341,110.763 234.341,118.538 237.611,118.538 237.611,105.633 		"/>
		<rect id="XMLID_92_" x="244.586" y="105.633" fill="#06183D" width="3.27" height="12.905"/>
		<polygon id="XMLID_91_" fill="#06183D" points="254.83,105.633 254.83,118.538 264.974,118.538 264.974,115.758 258.101,115.758 
			258.101,113.427 264.25,113.427 264.25,110.646 258.101,110.646 258.101,108.414 264.857,108.414 264.857,105.633 		"/>
		<path id="XMLID_88_" fill="#06183D" d="M276.355,111.332c1.742,0,2.447-0.548,2.447-1.507c0-1.038-0.705-1.41-2.212-1.41h-1.959
			v2.918H276.355z M278.764,113.369c1.077,0.607,1.449,2.761,3.036,2.761c0.352,0,0.685-0.078,0.998-0.196l0.588,2.468
			c-0.666,0.255-1.469,0.333-2.075,0.333c-4.172,0-4.582-4.778-5.973-4.778h-0.705v4.582h-3.27v-12.905h5.326
			c3.526,0,5.464,1.351,5.464,4.073c0,1.919-1.214,3.231-3.388,3.623V113.369z"/>
	</g>
	<g>
		<path id="XMLID_87_" fill="#06183D" d="M23.749,115.641c1.089,0.661,2.47,1.147,4.181,1.147c2.14,0,3.521-0.681,3.521-2.042
			c0-2.295-4.785-1.206-7.08-2.878c-0.72-0.525-1.167-1.303-1.167-2.529c0-2.528,2.1-3.773,4.998-3.773
			c1.965,0,3.832,0.564,5.038,1.264l-0.797,1.634c-1.05-0.525-2.567-1.011-4.104-1.011c-2.237,0-2.976,0.875-2.976,1.77
			c0,3.171,8.247,0.311,8.247,5.427c0,2.82-2.743,4.026-5.699,4.026c-2.12,0-3.851-0.564-5.095-1.381L23.749,115.641z"/>
		<polygon id="XMLID_86_" fill="#06183D" points="37.518,105.663 37.518,107.511 42.284,107.511 42.284,118.48 44.345,118.48 
			44.345,107.511 49.11,107.511 49.11,105.663 		"/>
		<path id="XMLID_83_" fill="#06183D" d="M58.27,108.503h0.039l2.256,4.493h-4.434L58.27,108.503z M57.589,105.605l-6.341,12.875
			h2.276l1.731-3.637h6.243l1.829,3.637h2.275l-6.574-12.875H57.589z"/>
		<polygon id="XMLID_82_" fill="#06183D" points="81.861,105.663 81.861,114.941 81.822,114.941 72.583,105.663 70.97,105.663 
			70.97,118.48 73.031,118.48 73.031,109.067 73.07,109.067 82.444,118.48 83.923,118.48 83.923,105.663 		"/>
		<path id="XMLID_79_" fill="#06183D" d="M94.988,116.632c1.264,0,2.315-0.117,3.21-0.369c2.139-0.622,3.442-2.023,3.442-4.395
			c0-2.393-1.381-3.579-3.326-4.085c-0.817-0.214-1.732-0.272-2.84-0.272h-2.489v9.122H94.988z M90.923,105.663h4.804
			c1.206,0,2.218,0.097,3.132,0.311c2.976,0.72,4.94,2.645,4.94,5.893c0,3.267-2.023,5.348-5.115,6.204
			c-1.05,0.292-2.218,0.408-3.657,0.408h-4.104V105.663z"/>
		<path id="XMLID_76_" fill="#06183D" d="M115.505,108.503h0.04l2.256,4.493h-4.435L115.505,108.503z M114.825,105.605l-6.34,12.875
			h2.275l1.731-3.637h6.244l1.828,3.637h2.275l-6.574-12.875H114.825z"/>
		<path id="XMLID_73_" fill="#06183D" d="M131.822,111.673c0.836,0,1.498-0.039,2.023-0.194c0.992-0.292,1.634-0.914,1.634-1.964
			c0-0.973-0.623-1.595-1.459-1.829c-0.545-0.156-1.128-0.175-1.945-0.175h-1.809v4.163H131.822z M128.205,105.663h3.831
			c0.972,0,1.848,0.058,2.587,0.253c1.673,0.447,3.014,1.536,3.014,3.559c0,2.198-1.575,3.307-3.676,3.657v0.039
			c0.836,0.467,1.361,2.178,2.393,3.014c0.389,0.311,0.817,0.506,1.361,0.506c0.233,0,0.603-0.039,0.895-0.117l0.428,1.75
			c-0.37,0.156-1.011,0.253-1.614,0.253c-0.972,0-1.731-0.35-2.353-0.856c-1.77-1.439-2.451-4.201-3.754-4.201h-1.05v4.959h-2.061
			V105.663z"/>
		<path id="XMLID_9_" fill="#06183D" d="M148.431,116.632c1.264,0,2.315-0.117,3.209-0.369c2.14-0.622,3.443-2.023,3.443-4.395
			c0-2.393-1.381-3.579-3.326-4.085c-0.817-0.214-1.732-0.272-2.84-0.272h-2.489v9.122H148.431z M144.366,105.663h4.804
			c1.206,0,2.217,0.097,3.132,0.311c2.976,0.72,4.94,2.645,4.94,5.893c0,3.267-2.023,5.348-5.115,6.204
			c-1.05,0.292-2.218,0.408-3.657,0.408h-4.104V105.663z"/>
	</g>
</g>
</svg>
