<?xml version="1.0" encoding="utf-8"?>
<!-- Generator: Adobe Illustrator 17.0.0, SVG Export Plug-In . SVG Version: 6.00 Build 0)  -->
<!DOCTYPE svg PUBLIC "-//W3C//DTD SVG 1.1//EN" "http://www.w3.org/Graphics/SVG/1.1/DTD/svg11.dtd">
<svg version="1.1" id="Layer_2" xmlns="http://www.w3.org/2000/svg" xmlns:xlink="http://www.w3.org/1999/xlink" x="0px" y="0px"
	 width="300px" height="250px" viewBox="0 0 300 250" enable-background="new 0 0 300 250" xml:space="preserve">
<g>
	<g>
		<g id="XMLID_128_">
			<path id="XMLID_132_" fill="#F8F8F8" d="M164.92,68.434c0.562,0,0.857-0.053,1.084-0.12c0.628-0.187,0.883-0.576,0.883-1.071
				s-0.255-0.843-0.843-1.017c-0.228-0.067-0.468-0.08-0.91-0.08h-1.164v2.288H164.92z M161.735,64.246h3.452
				c0.75,0,1.271,0.067,1.739,0.201c1.379,0.388,2.249,1.311,2.249,2.77c0,1.486-0.897,2.529-2.53,2.917
				c-0.442,0.107-0.95,0.147-1.646,0.147h-1.031v2.783h-2.235V64.246z"/>
			<path id="XMLID_129_" fill="#F8F8F8" d="M176.791,68.14c1.191,0,1.672-0.375,1.672-1.03c0-0.709-0.482-0.964-1.512-0.964h-1.338
				v1.994H176.791z M178.437,69.532c0.736,0.415,0.99,1.887,2.074,1.887c0.24,0,0.468-0.054,0.682-0.134l0.402,1.686
				c-0.455,0.174-1.004,0.228-1.418,0.228c-2.851,0-3.131-3.265-4.082-3.265h-0.482v3.131h-2.235v-8.818h3.639
				c2.409,0,3.734,0.923,3.734,2.783c0,1.311-0.829,2.208-2.315,2.475V69.532z"/>
		</g>
		<polygon id="XMLID_127_" fill="#F8F8F8" points="185.343,64.246 185.343,73.064 192.275,73.064 192.275,71.164 187.579,71.164 
			187.579,69.571 191.781,69.571 191.781,67.671 187.579,67.671 187.579,66.146 192.195,66.146 192.195,64.246 		"/>
		<polygon id="XMLID_126_" fill="#F8F8F8" points="205.485,64.246 202.086,68.287 202.059,68.287 198.66,64.246 196.639,64.246 
			196.639,73.064 198.874,73.064 198.874,67.751 198.901,67.751 201.885,71.311 202.233,71.311 205.217,67.751 205.244,67.751 
			205.244,73.064 207.479,73.064 207.479,64.246 		"/>
		<rect id="XMLID_125_" x="212.245" y="64.246" fill="#F8F8F8" width="2.235" height="8.818"/>
		<polygon id="XMLID_124_" fill="#F8F8F8" points="219.245,64.246 219.245,73.064 226.176,73.064 226.176,71.164 221.48,71.164 
			221.48,69.571 225.682,69.571 225.682,67.671 221.48,67.671 221.48,66.146 226.096,66.146 226.096,64.246 		"/>
		<path id="XMLID_121_" fill="#F8F8F8" d="M233.953,68.14c1.191,0,1.672-0.375,1.672-1.03c0-0.709-0.482-0.964-1.512-0.964h-1.338
			v1.994H233.953z M235.599,69.532c0.736,0.415,0.99,1.887,2.075,1.887c0.24,0,0.468-0.054,0.682-0.134l0.402,1.686
			c-0.455,0.174-1.004,0.228-1.418,0.228c-2.851,0-3.131-3.265-4.082-3.265h-0.482v3.131h-2.235v-8.818h3.639
			c2.409,0,3.734,0.923,3.734,2.783c0,1.311-0.829,2.208-2.315,2.475V69.532z"/>
	</g>
	<g>
		<path id="XMLID_120_" fill="#F8F8F8" d="M61.341,71.084c0.744,0.452,1.688,0.784,2.857,0.784c1.462,0,2.406-0.465,2.406-1.395
			c0-1.568-3.27-0.824-4.838-1.967c-0.492-0.359-0.797-0.89-0.797-1.728c0-1.728,1.435-2.578,3.415-2.578
			c1.343,0,2.618,0.385,3.442,0.864l-0.545,1.116c-0.718-0.359-1.754-0.691-2.804-0.691c-1.529,0-2.034,0.598-2.034,1.209
			c0,2.167,5.635,0.213,5.635,3.708c0,1.927-1.874,2.751-3.894,2.751c-1.449,0-2.631-0.385-3.482-0.944L61.341,71.084z"/>
		<polygon id="XMLID_119_" fill="#F8F8F8" points="70.75,64.266 70.75,65.529 74.007,65.529 74.007,73.025 75.415,73.025 
			75.415,65.529 78.671,65.529 78.671,64.266 		"/>
		<path id="XMLID_116_" fill="#F8F8F8" d="M84.93,66.207h0.027l1.542,3.07h-3.03L84.93,66.207z M84.465,64.227l-4.333,8.798h1.555
			l1.183-2.485h4.266l1.25,2.485h1.555l-4.492-8.798H84.465z"/>
		<polygon id="XMLID_115_" fill="#F8F8F8" points="101.05,64.266 101.05,70.606 101.024,70.606 94.711,64.266 93.608,64.266 
			93.608,73.025 95.017,73.025 95.017,66.592 95.044,66.592 101.449,73.025 102.46,73.025 102.46,64.266 		"/>
		<path id="XMLID_112_" fill="#F8F8F8" d="M110.021,71.762c0.864,0,1.582-0.08,2.193-0.252c1.462-0.425,2.352-1.382,2.352-3.003
			c0-1.635-0.944-2.446-2.272-2.791c-0.558-0.146-1.183-0.186-1.941-0.186h-1.701v6.233H110.021z M107.243,64.266h3.282
			c0.824,0,1.515,0.066,2.14,0.213c2.033,0.492,3.376,1.807,3.376,4.027c0,2.233-1.382,3.655-3.495,4.239
			c-0.718,0.199-1.515,0.279-2.499,0.279h-2.804V64.266z"/>
		<path id="XMLID_109_" fill="#F8F8F8" d="M124.041,66.207h0.027l1.542,3.07h-3.03L124.041,66.207z M123.576,64.227l-4.332,8.798
			h1.555l1.183-2.485h4.266l1.249,2.485h1.555l-4.492-8.798H123.576z"/>
		<path id="XMLID_106_" fill="#F8F8F8" d="M135.191,68.373c0.571,0,1.023-0.027,1.382-0.133c0.678-0.199,1.117-0.625,1.117-1.342
			c0-0.665-0.426-1.09-0.997-1.25c-0.372-0.106-0.771-0.12-1.329-0.12h-1.236v2.844H135.191z M132.719,64.266h2.618
			c0.664,0,1.262,0.04,1.768,0.173c1.143,0.306,2.06,1.05,2.06,2.432c0,1.502-1.076,2.26-2.512,2.499v0.027
			c0.571,0.319,0.93,1.488,1.635,2.06c0.266,0.213,0.558,0.346,0.93,0.346c0.159,0,0.412-0.027,0.611-0.08l0.292,1.196
			c-0.253,0.106-0.691,0.173-1.103,0.173c-0.664,0-1.183-0.239-1.608-0.585c-1.21-0.983-1.675-2.871-2.565-2.871h-0.718v3.389
			h-1.409V64.266z"/>
		<path id="XMLID_103_" fill="#F8F8F8" d="M146.54,71.762c0.864,0,1.582-0.08,2.193-0.252c1.462-0.425,2.353-1.382,2.353-3.003
			c0-1.635-0.944-2.446-2.272-2.791c-0.558-0.146-1.183-0.186-1.941-0.186h-1.701v6.233H146.54z M143.762,64.266h3.282
			c0.824,0,1.515,0.066,2.14,0.213c2.033,0.492,3.376,1.807,3.376,4.027c0,2.233-1.382,3.655-3.495,4.239
			c-0.718,0.199-1.515,0.279-2.499,0.279h-2.804V64.266z"/>
	</g>
</g>
</svg>
