<?xml version="1.0" encoding="utf-8"?>
<!-- Generator: Adobe Illustrator 17.0.0, SVG Export Plug-In . SVG Version: 6.00 Build 0)  -->
<!DOCTYPE svg PUBLIC "-//W3C//DTD SVG 1.1//EN" "http://www.w3.org/Graphics/SVG/1.1/DTD/svg11.dtd">
<svg version="1.1" id="Layer_2" xmlns="http://www.w3.org/2000/svg" xmlns:xlink="http://www.w3.org/1999/xlink" x="0px" y="0px"
	 width="300px" height="250px" viewBox="0 0 300 250" enable-background="new 0 0 300 250" xml:space="preserve">
<g>
	<rect x="39.836" y="28.125" fill="#06183D" width="224.135" height="2.42"/>
	<rect x="39.835" y="55.833" fill="#06183D" width="224.138" height="2.42"/>
</g>
<g>
	<g>
		<path fill="#FFFFFF" d="M51.464,35.747h3.774V47.43h7.435v3.209H51.464V35.747z"/>
		<path fill="#FFFFFF" d="M71.918,50.865c-4.927,0-8.452-2.893-8.452-7.616s3.525-7.616,8.452-7.616s8.452,2.893,8.452,7.616
			S76.845,50.865,71.918,50.865z M71.918,47.611c3.073,0,4.588-1.83,4.588-4.361c0-2.531-1.515-4.361-4.588-4.361
			s-4.588,1.831-4.588,4.361C67.33,45.781,68.845,47.611,71.918,47.611z"/>
		<path fill="#FFFFFF" d="M83.558,35.747h3.277l8.723,9.062h0.045v-9.062h3.774v14.892h-3.119l-8.881-9.288h-0.045v9.288h-3.774
			V35.747z"/>
		<path fill="#FFFFFF" d="M103.356,35.747h6.26c1.537,0,2.599,0.113,3.571,0.339c3.231,0.768,5.808,2.938,5.808,6.87
			c0,4.022-2.712,6.102-5.221,6.983c-1.74,0.61-3.706,0.701-5.446,0.701h-4.972V35.747z M108.555,47.43
			c1.355,0,2.418-0.09,3.299-0.339c1.831-0.52,3.277-1.921,3.277-4.136c0-2.192-1.379-3.322-2.916-3.751
			c-0.858-0.249-1.739-0.249-3.186-0.249h-1.898v8.474H108.555z"/>
		<path fill="#FFFFFF" d="M129.845,50.865c-4.927,0-8.452-2.893-8.452-7.616s3.525-7.616,8.452-7.616s8.452,2.893,8.452,7.616
			S134.771,50.865,129.845,50.865z M129.845,47.611c3.073,0,4.588-1.83,4.588-4.361c0-2.531-1.515-4.361-4.588-4.361
			s-4.587,1.831-4.587,4.361C125.258,45.781,126.771,47.611,129.845,47.611z"/>
		<path fill="#FFFFFF" d="M141.484,35.747h3.277l8.723,9.062h0.045v-9.062h3.774v14.892h-3.119l-8.881-9.288h-0.045v9.288h-3.774
			V35.747z"/>
		<path fill="#FFFFFF" d="M166.233,43.114h7.209v2.916h-7.209V43.114z"/>
		<path fill="#FFFFFF" d="M182.369,35.747h5.831c1.266,0,2.146,0.113,2.938,0.339c2.327,0.655,3.797,2.214,3.797,4.678
			c0,2.508-1.515,4.271-4.271,4.926c-0.746,0.181-1.604,0.249-2.779,0.249h-1.74v4.701h-3.774V35.747z M187.748,42.82
			c0.949,0,1.446-0.09,1.83-0.204c1.062-0.316,1.492-0.972,1.492-1.808c0-0.836-0.43-1.424-1.424-1.718
			c-0.385-0.113-0.791-0.135-1.537-0.135h-1.966v3.864H187.748z"/>
		<path fill="#FFFFFF" d="M196.066,50.639l6.779-14.96h3.367l7.344,14.96h-4.226l-1.446-3.141h-6.44l-1.288,3.141H196.066z
			 M204.518,40.176h-0.045l-1.718,4.158h3.661L204.518,40.176z"/>
		<path fill="#FFFFFF" d="M224.182,44.673c1.242,0.7,1.672,3.186,3.502,3.186c0.407,0,0.791-0.09,1.152-0.226l0.679,2.847
			c-0.769,0.294-1.695,0.384-2.396,0.384c-4.813,0-5.288-5.514-6.893-5.514h-0.813v5.288h-3.774V35.747h6.147
			c4.067,0,6.305,1.559,6.305,4.7c0,2.215-1.401,3.729-3.909,4.181V44.673z M221.401,42.323c2.012,0,2.825-0.633,2.825-1.74
			c0-1.198-0.813-1.627-2.554-1.627h-2.26v3.367H221.401z"/>
		<path fill="#FFFFFF" d="M231.775,35.747h3.774v14.892h-3.774V35.747z"/>
		<path fill="#FFFFFF" d="M239.979,46.413c1.401,0.859,3.412,1.288,5.107,1.288c2.146,0,3.254-0.52,3.254-1.491
			c0-2.215-9.288-0.022-9.288-5.785c0-3.164,2.78-4.791,6.306-4.791c2.26,0,4.948,0.565,6.599,1.537l-1.266,2.78
			c-1.356-0.701-3.57-1.152-5.197-1.152c-1.854,0-2.577,0.52-2.577,1.311c0,2.667,9.288,0.136,9.288,5.988
			c0,3.074-2.938,4.769-7.096,4.769c-2.396,0-4.881-0.542-6.599-1.672L239.979,46.413z"/>
	</g>
</g>
</svg>
