<?xml version="1.0" encoding="utf-8"?>
<!-- Generator: Adobe Illustrator 17.0.0, SVG Export Plug-In . SVG Version: 6.00 Build 0)  -->
<!DOCTYPE svg PUBLIC "-//W3C//DTD SVG 1.1//EN" "http://www.w3.org/Graphics/SVG/1.1/DTD/svg11.dtd">
<svg version="1.1" id="Layer_2" xmlns="http://www.w3.org/2000/svg" xmlns:xlink="http://www.w3.org/1999/xlink" x="0px" y="0px"
	 width="300px" height="250px" viewBox="0 0 300 250" enable-background="new 0 0 300 250" xml:space="preserve">
<g>
	<path fill="#FFFFFF" d="M861.3,585.3h6.7v1h-5.6v3.3h5.1v1h-5.1v4.5h-1.1L861.3,585.3L861.3,585.3z"/>
	<path fill="#FFFFFF" d="M868.8,587.9h2.5v2.6l0,0c0.6-1.5,1.8-2.8,3.6-2.8l-0.1,1.1c-1.4,0-2.6,1.2-3.2,3c-0.2,0.7-0.3,1.5-0.3,2.4
		v0.7h-1.1v-6.1h-1.4V587.9z"/>
	<path fill="#FFFFFF" d="M875.9,591.5c0-2.1,1.5-3.7,3.9-3.7s3.9,1.6,3.9,3.7c0,2-1.5,3.7-3.9,3.7
		C877.4,595.1,875.9,593.5,875.9,591.5z M882.5,591.5c0-1.6-1.1-2.7-2.7-2.7c-1.6,0-2.8,1.2-2.8,2.7c0,1.6,1.1,2.7,2.7,2.7
		C881.4,594.2,882.5,593,882.5,591.5z"/>
	<path fill="#FFFFFF" d="M884.7,587.9h2.5v2.4l0,0c0.5-1.3,1.5-2.6,3.4-2.6c1.4,0,2.3,0.8,2.3,2.3v0.3l0,0c0.5-1.4,1.6-2.7,3.4-2.7
		c1.4,0,2.3,0.8,2.3,2.4v3.2c0,0.5,0.3,0.7,0.8,0.7c0.2,0,0.4,0,0.6-0.1l0.2,0.9c-0.4,0.1-0.7,0.2-1,0.2c-1,0-1.6-0.5-1.6-1.5v-3.2
		c0-1.1-0.4-1.7-1.4-1.7c-1.3,0-2.4,1.2-3,3c-0.2,0.7-0.3,1.6-0.3,2.5v0.8h-1.1v-4.6c0-1.1-0.5-1.7-1.4-1.7c-1.3,0-2.4,1.2-2.9,3
		c-0.2,0.7-0.3,1.6-0.3,2.5v0.8h-1.1v-6.1h-1.4V587.9z"/>
</g>
<g>
	<path fill="#FFFFFF" d="M920.8,614.4V612c-7.5-0.7-11.9-4.6-13.8-8.7l1.8-0.9c1.6,3.5,5.3,6.9,12,7.6v-4c-5-0.6-7.3-3.1-8.4-5.4
		l1.8-0.9c0.8,1.7,2.5,3.8,6.6,4.4v-9.6c-7-0.3-12.4-5.8-12.4-12.9c0-7.1,5.4-12.7,12.4-12.9v-2h2v2h4v-2h2v2.1
		c5.8,0.5,9.8,3.5,11.9,7.4l-1.8,0.9c-1.7-3.4-5.2-6-10.1-6.4v4.1c3.4,0.5,5.4,2,6.5,4.1l-1.8,0.9c-0.8-1.5-2.1-2.6-4.7-3v9.6
		c7,0.3,12.5,5.8,12.5,12.9c0,7.2-5.4,12.7-12.5,12.9v2.3h-2v-2.3h-4v2.3h-2V614.4z M920.8,592.3v-4c-3.6-0.3-6.4-3.1-6.4-6.9
		c0-3.7,2.7-6.6,6.4-6.9v-4c-5.9,0.3-10.4,5-10.4,10.9C910.4,587.4,914.9,592,920.8,592.3z M920.8,586.2v-9.8
		c-2.5,0.3-4.4,2.3-4.4,4.9C916.5,583.9,918.3,586,920.8,586.2z M926.8,574.4v-4h-4v4H926.8z M922.8,576.4V604h4v-27.6H922.8z
		 M926.8,610.1v-4h-4v4H926.8z M928.9,588.2v4c3.6,0.3,6.4,3.2,6.4,6.9c0,3.8-2.8,6.7-6.4,6.9v4c5.9-0.2,10.5-4.9,10.5-10.9
		C939.3,593.2,934.8,588.5,928.9,588.2z M928.9,594.3v9.8c2.5-0.2,4.4-2.3,4.4-4.9C933.3,596.6,931.3,594.5,928.9,594.3z"/>
	<path fill="#FFFFFF" d="M963.4,566.9l-15.9,16.3l-1.5-1.5l14.5-14.8H963.4z M982.6,613.8h-34.2v-2h14.2v-4h-14.2v-2h14.2v-29.5
		l-10.9,11.1l-1.5-1.5l18.6-19h1.8v38.9h11.9v2h-18v4h18v2H982.6z M964.6,574.2v31.6h4v-35.7L964.6,574.2z"/>
	<path fill="#FFFFFF" d="M1002,566.9l-15.9,16.3l-1.5-1.5l14.5-14.8H1002z M1021.2,613.8H987v-2h14.2v-4H987v-2h14.2v-29.5
		l-10.9,11.1l-1.5-1.5l18.6-19h1.8v38.9h11.9v2h-18v4h18v2H1021.2z M1003.2,574.2v31.6h4v-35.7L1003.2,574.2z"/>
	<path fill="#FFFFFF" d="M1024.5,600.1c0-5.6,2.7-8.6,6.3-10.6c-2.9-1.9-5-4.9-5-9.7c0-8.2,6.5-13.4,16.5-13.4s16.5,5.2,16.5,13.4
		c0,4.8-2.1,7.8-5,9.7c3.6,1.9,6.3,5,6.3,10.6c0,7.9-6.4,14.3-17.8,14.3C1030.9,614.4,1024.5,608,1024.5,600.1z M1058,600.1
		c0-5-2.7-7.8-6.4-9.5c-1.5,0.7-3.4,1.3-5.1,1.7c4,1.2,7.4,3.2,7.4,7.7c0,4.7-3.7,8.4-11.7,8.4s-11.7-3.7-11.7-8.4
		c0-4.5,3.5-6.5,7.4-7.7c-1.7-0.4-3.6-1-5.1-1.7c-3.6,1.7-6.4,4.6-6.4,9.5c0,6.8,5.7,12.3,15.7,12.3
		C1052.3,612.4,1058,606.9,1058,600.1z M1052.7,579.6c0,4.1-2.9,6-6.8,7.2c1.9,0.5,3.8,1.1,5.6,1.7c3-1.6,5.2-4.2,5.2-8.7
		c0-7-5.7-11.4-14.5-11.4s-14.5,4.4-14.5,11.4c0,4.6,2.2,7.1,5.2,8.7c1.8-0.7,3.7-1.3,5.6-1.7c-3.9-1.2-6.8-3.1-6.8-7.2
		c0-4.4,3.5-7.2,10.5-7.2C1049.3,572.4,1052.7,575.2,1052.7,579.6z M1052,600c0-4.3-4.4-5.7-9.7-6.9c-5.4,1.2-9.7,2.6-9.7,6.9
		c0,3.6,3,6.4,9.7,6.4C1049,606.3,1052,603.6,1052,600z M1050.7,579.6c0-3.2-2.8-5.2-8.4-5.2s-8.4,1.9-8.4,5.2c0,3.6,3.7,5,8.4,6.2
		C1047,584.6,1050.7,583.2,1050.7,579.6z M1049,589.6c-1.7-0.6-3.3-1-6.7-1.8c-3.4,0.8-5,1.2-6.7,1.8c1.8,0.6,4.6,1.2,6.7,1.6
		C1044.4,590.8,1047.2,590.2,1049,589.6z"/>
</g>
<path fill="#FFFFFF" d="M1068.9,583.7c0-2.1,1.5-3.8,4-3.8c2.4,0,4,1.7,4,3.8s-1.5,3.7-4,3.7S1068.9,585.8,1068.9,583.7z
	 M1075.6,583.7c0-1.6-1.1-2.8-2.8-2.8c-1.7,0-2.8,1.2-2.8,2.8s1.1,2.8,2.8,2.8C1074.5,586.4,1075.6,585.3,1075.6,583.7z
	 M1077.9,580.1h2.6v2.7l0,0c0.6-1.5,1.9-2.9,3.7-2.9c1.5,0,2.4,0.8,2.4,2.5v3.2c0,0.5,0.3,0.7,0.8,0.7c0.2,0,0.5,0,0.6-0.1l0.2,0.9
	c-0.4,0.1-0.7,0.2-1.1,0.2c-1,0-1.6-0.5-1.6-1.5v-3.3c0-1.1-0.4-1.7-1.5-1.7c-1.5,0-2.8,1.5-3.3,3.4c-0.2,0.8-0.3,1.5-0.3,2.3v0.7
	h-1.1V581h-1.5v-0.9H1077.9z M1089.3,583.8c0-2.2,1.6-3.9,4.1-3.9c1.7,0,3,0.7,3,2.1c0,1.3-1.1,2.2-3.8,2.2c-0.7,0-1.5,0-2.1-0.1
	c0.1,1.5,1.2,2.4,2.9,2.4c1.1,0,1.8-0.2,2.4-0.5l0.3,0.9c-0.7,0.3-1.7,0.6-2.9,0.6C1090.7,587.4,1089.3,585.9,1089.3,583.8z
	 M1092.5,583.2c2,0,2.7-0.5,2.7-1.2s-0.8-1.1-1.8-1.1c-1.6,0-2.7,0.8-2.9,2.2C1091.1,583.2,1091.8,583.2,1092.5,583.2z M1068.3,590
	l2.6,5.6l0,0l2.3-5.6h0.8l2.4,5.6l0,0l2.5-5.6h1.2l-3.4,7.2h-0.8l-2.4-5.5l0,0l-2.3,5.5h-0.8l-3.4-7.2H1068.3z M1080.9,594.1
	c0-1.6,0.7-2.8,1.9-3.6c0.8-0.5,1.8-0.8,3.1-0.8c0.7,0,1.4,0.1,2.1,0.1v5.6c0,0.6,0.3,0.8,0.7,0.8c0.2,0,0.5-0.1,0.6-0.1l0.2,0.9
	c-0.3,0.1-0.7,0.2-1.1,0.2c-0.9,0-1.5-0.4-1.5-1.4c0-0.2,0-0.5,0-0.9l0,0c-0.5,1.3-1.7,2.4-3.3,2.4
	C1082.2,597.3,1080.9,596.3,1080.9,594.1z M1087,591.2v-0.4c-0.3,0-0.6,0-1.1,0c-1,0-1.8,0.2-2.4,0.6c-0.9,0.6-1.4,1.5-1.4,2.7
	c0,1.4,0.6,2.2,1.8,2.2C1085.4,596.3,1087,594.7,1087,591.2z M1093.7,596.5l-3.7-6.5h1.3l3.1,5.3l0,0l2.7-5.3h1.2l-5.6,10.7h-1.2
	L1093.7,596.5z M1100.4,589.9l-0.9,0.6l-0.3-0.4l1-0.6l-1-0.6l0.3-0.4l0.9,0.6v-1h0.5v1l0.9-0.6l0.3,0.4l-1,0.6l1,0.6l-0.3,0.4
	l-0.9-0.6v1h-0.5V589.9z"/>
<g>
	<path fill="#06183D" d="M28.577,105.376h6.704v0.975h-5.611v3.308h5.065v0.96h-5.065v4.489h-1.092V105.376z"/>
	<path fill="#06183D" d="M36.09,108.063h2.525v2.585h0.03c0.561-1.521,1.845-2.821,3.618-2.776l-0.148,1.137
		c-1.418-0.014-2.628,1.181-3.204,3.013c-0.221,0.694-0.295,1.462-0.295,2.363v0.723h-1.093v-6.099H36.09V108.063z"/>
	<path fill="#06183D" d="M43.118,111.577c0-2.067,1.521-3.706,3.898-3.706c2.363,0,3.884,1.639,3.884,3.706
		c0,2.038-1.506,3.677-3.913,3.677C44.639,115.255,43.118,113.616,43.118,111.577z M49.763,111.577c0-1.595-1.123-2.731-2.747-2.731
		c-1.639,0-2.762,1.152-2.762,2.731c0,1.551,1.123,2.702,2.732,2.702C48.64,114.28,49.763,113.128,49.763,111.577z"/>
	<path fill="#06183D" d="M51.96,108.063h2.525v2.436h0.03c0.501-1.269,1.535-2.628,3.366-2.628c1.388,0,2.319,0.797,2.319,2.348
		v0.34h0.03c0.546-1.373,1.61-2.687,3.441-2.687c1.432,0,2.318,0.797,2.318,2.392v3.249c0,0.532,0.296,0.694,0.754,0.694
		c0.177,0,0.443-0.044,0.59-0.088l0.236,0.9c-0.354,0.103-0.709,0.163-1.048,0.163c-1.004,0-1.609-0.473-1.609-1.462v-3.19
		c0-1.137-0.444-1.683-1.418-1.683c-1.33,0-2.437,1.21-2.954,2.983c-0.222,0.738-0.31,1.58-0.31,2.496v0.783h-1.078v-4.592
		c0-1.137-0.473-1.668-1.418-1.668c-1.314,0-2.422,1.21-2.939,2.983c-0.222,0.738-0.31,1.58-0.31,2.496v0.783h-1.093v-6.099H51.96
		V108.063z"/>
</g>
<g>
	<path fill="#06183D" d="M88.061,134.492v-2.412c-7.504-0.737-11.859-4.557-13.802-8.71l1.809-0.938
		c1.608,3.485,5.293,6.902,11.993,7.639v-4.021c-4.958-0.603-7.303-3.083-8.442-5.427l1.809-0.938
		c0.804,1.742,2.546,3.752,6.633,4.355v-9.648c-7.035-0.268-12.395-5.762-12.395-12.932c0-7.102,5.36-12.663,12.395-12.931v-2.01
		h2.011v2.01h4.02v-2.01h2.011v2.076c5.829,0.536,9.849,3.484,11.858,7.438l-1.809,0.938c-1.675-3.351-5.226-5.964-10.05-6.365
		v4.087c3.417,0.469,5.427,2.01,6.499,4.087l-1.81,0.938c-0.804-1.475-2.144-2.613-4.689-3.016v9.648
		c7.035,0.268,12.462,5.829,12.462,12.932c0,7.169-5.427,12.73-12.462,12.931v2.278h-2.011v-2.278h-4.02v2.278H88.061z
		 M88.061,112.381v-4.021c-3.618-0.268-6.365-3.148-6.365-6.901c0-3.685,2.747-6.633,6.365-6.9v-4.021
		c-5.896,0.269-10.385,4.958-10.385,10.921C77.676,107.49,82.165,112.113,88.061,112.381z M88.061,106.351v-9.782
		c-2.479,0.268-4.354,2.345-4.354,4.891C83.706,104.073,85.582,106.083,88.061,106.351z M94.091,94.559v-4.021h-4.02v4.021H94.091z
		 M90.071,96.569v27.604h4.02V96.569H90.071z M94.091,130.204v-4.021h-4.02v4.021H94.091z M96.102,108.361v4.021
		c3.618,0.268,6.432,3.216,6.432,6.901c0,3.752-2.813,6.7-6.432,6.901v4.021c5.896-0.201,10.452-4.892,10.452-10.921
		C106.554,113.319,101.997,108.629,96.102,108.361z M96.102,114.391v9.782c2.479-0.201,4.422-2.278,4.422-4.891
		C100.523,116.736,98.58,114.66,96.102,114.391z"/>
	<path fill="#06183D" d="M130.606,87.054l-15.879,16.282l-1.475-1.475l14.473-14.808H130.606z M149.836,133.956h-34.171v-2.01
		h14.204v-4.021h-14.204v-2.01h14.204V96.368l-10.854,11.122l-1.475-1.474l18.56-18.962h1.809v38.862h11.927v2.01H131.88v4.021
		h17.956V133.956z M131.88,94.358v31.558h4.02V90.204L131.88,94.358z"/>
	<path fill="#06183D" d="M169.197,87.054l-15.879,16.282l-1.475-1.475l14.473-14.808H169.197z M188.427,133.956h-34.171v-2.01
		h14.204v-4.021h-14.204v-2.01h14.204V96.368l-10.854,11.122l-1.475-1.474l18.56-18.962h1.809v38.862h11.927v2.01h-17.956v4.021
		h17.956V133.956z M170.471,94.358v31.558h4.02V90.204L170.471,94.358z"/>
	<path fill="#06183D" d="M191.774,120.22c0-5.628,2.681-8.644,6.299-10.586c-2.948-1.876-5.025-4.892-5.025-9.716
		c0-8.174,6.499-13.399,16.482-13.399s16.482,5.226,16.482,13.399c0,4.824-2.077,7.84-5.025,9.716
		c3.618,1.942,6.298,4.958,6.298,10.586c0,7.907-6.365,14.272-17.755,14.272C198.14,134.492,191.774,128.127,191.774,120.22z
		 M225.275,120.22c0-4.958-2.747-7.772-6.365-9.514c-1.541,0.67-3.417,1.272-5.092,1.675c3.953,1.206,7.438,3.216,7.438,7.705
		c0,4.69-3.686,8.375-11.726,8.375s-11.726-3.685-11.726-8.375c0-4.489,3.484-6.499,7.438-7.705
		c-1.675-0.402-3.551-1.005-5.092-1.675c-3.618,1.741-6.365,4.556-6.365,9.514c0,6.834,5.694,12.262,15.745,12.262
		C219.58,132.482,225.275,127.055,225.275,120.22z M219.982,99.718c0,4.087-2.948,5.963-6.834,7.169
		c1.942,0.469,3.818,1.072,5.628,1.742c3.015-1.608,5.226-4.154,5.226-8.711c0-6.968-5.694-11.39-14.472-11.39
		s-14.473,4.422-14.473,11.39c0,4.557,2.211,7.103,5.227,8.711c1.809-0.67,3.685-1.273,5.628-1.742
		c-3.886-1.206-6.834-3.082-6.834-7.169c0-4.423,3.483-7.17,10.452-7.17C216.498,92.548,219.982,95.295,219.982,99.718z
		 M219.245,120.086c0-4.288-4.354-5.695-9.715-6.901c-5.36,1.206-9.716,2.613-9.716,6.901c0,3.618,3.016,6.366,9.716,6.366
		S219.245,123.705,219.245,120.086z M217.973,99.718c0-3.217-2.814-5.159-8.442-5.159s-8.442,1.942-8.442,5.159
		c0,3.618,3.686,4.958,8.442,6.164C214.287,104.676,217.973,103.336,217.973,99.718z M216.23,109.701
		c-1.675-0.603-3.351-1.005-6.7-1.809c-3.351,0.804-5.025,1.206-6.7,1.809c1.809,0.604,4.623,1.206,6.7,1.608
		C211.607,110.907,214.421,110.304,216.23,109.701z"/>
</g>
<path fill="#06183D" d="M240.094,100.05 M235.577,110.098l2.57,5.577h0.046l2.345-5.577h0.827l2.42,5.577h0.046l2.48-5.577h1.233
	l-3.352,7.215h-0.811l-2.421-5.532h-0.03l-2.345,5.532h-0.811l-3.427-7.215H235.577z M248.184,114.247
	c0-1.563,0.691-2.841,1.939-3.593c0.782-0.466,1.774-0.751,3.142-0.751c0.706,0,1.443,0.06,2.074,0.12v5.576
	c0,0.572,0.316,0.752,0.736,0.752c0.21,0,0.481-0.06,0.632-0.105l0.225,0.917c-0.33,0.12-0.722,0.18-1.097,0.18
	c-0.857,0-1.488-0.421-1.548-1.413c0-0.241-0.015-0.511,0-0.887h-0.03c-0.541,1.338-1.684,2.375-3.262,2.375
	C249.477,117.418,248.184,116.381,248.184,114.247z M254.227,111.36v-0.421c-0.286-0.03-0.632-0.045-1.128-0.045
	c-0.962,0-1.774,0.225-2.375,0.616c-0.872,0.557-1.384,1.489-1.384,2.691c0,1.353,0.646,2.224,1.804,2.224
	C252.633,116.426,254.227,114.818,254.227,111.36z M260.898,116.621l-3.713-6.524h1.262l3.052,5.321h0.03l2.736-5.321h1.203
	l-5.577,10.733h-1.187L260.898,116.621z M267.689,110.035l-0.92,0.567l-0.271-0.447l0.977-0.561l-0.977-0.56l0.271-0.447l0.92,0.567
	l-0.016-1.007h0.543l-0.016,1.007l0.928-0.575l0.271,0.447l-0.982,0.567l0.982,0.568l-0.271,0.447l-0.928-0.575l0.016,0.976h-0.543
	L267.689,110.035z"/>
<path fill="#06183D" d="M234.212,103.822c0-2.104,1.548-3.772,3.968-3.772c2.405,0,3.953,1.668,3.953,3.772
	c0,2.075-1.533,3.743-3.983,3.743C235.76,107.565,234.212,105.897,234.212,103.822z M240.977,103.822c0-1.623-1.143-2.78-2.796-2.78
	c-1.668,0-2.811,1.172-2.811,2.78c0,1.578,1.143,2.751,2.781,2.751C239.834,106.573,240.977,105.401,240.977,103.822z
	 M243.213,100.245h2.571v2.661h0.03c0.601-1.489,1.878-2.856,3.743-2.856c1.518,0,2.42,0.841,2.42,2.51v3.232
	c0,0.541,0.301,0.706,0.766,0.706c0.181,0,0.451-0.045,0.602-0.09l0.241,0.916c-0.361,0.105-0.722,0.165-1.067,0.165
	c-1.022,0-1.639-0.481-1.639-1.488v-3.277c0-1.067-0.391-1.683-1.488-1.683c-1.459,0-2.766,1.472-3.322,3.352
	c-0.226,0.752-0.285,1.488-0.285,2.315v0.707h-1.113v-6.208h-1.458V100.245z M254.604,103.928c0-2.24,1.578-3.878,4.133-3.878
	c1.653,0,2.991,0.722,2.991,2.089c0,1.309-1.128,2.165-3.818,2.165c-0.722,0-1.473-0.029-2.104-0.12
	c0.06,1.518,1.187,2.39,2.931,2.39c1.052,0,1.759-0.24,2.42-0.526l0.346,0.887c-0.736,0.346-1.684,0.631-2.856,0.631
	C256.017,107.565,254.604,106.002,254.604,103.928z M257.866,103.341c2.044,0,2.69-0.526,2.69-1.232
	c0-0.722-0.752-1.067-1.819-1.067c-1.564,0-2.676,0.827-2.886,2.164C256.452,103.296,257.174,103.341,257.866,103.341z"/>
</svg>
